<svg xmlns="http://www.w3.org/2000/svg" xmlns:xlink="http://www.w3.org/1999/xlink" width="241.18" height="45" viewBox="0 0 241.18 45"><defs><linearGradient id="a" x1="23.41" y1="0.65" x2="23.41" y2="45.56" gradientUnits="userSpaceOnUse"><stop offset="0" stop-color="#56c5f8"/><stop offset="1" stop-color="#0297f2"/></linearGradient><linearGradient id="b" x1="55.93" y1="21.36" x2="242.02" y2="21.36" gradientUnits="userSpaceOnUse"><stop offset="0" stop-color="#0196f2"/><stop offset="1" stop-color="#56c5f8"/></linearGradient></defs><title>beta profiles logo</title><path d="M28.37,2.71c0,.66,0,1.32,0,2,0,.27.06.4.34.48a11.85,11.85,0,0,1,1.45.51.45.45,0,0,0,.62-.13c.89-1,1.8-2,2.69-3,.19-.22.34-.28.6-.11s.79.48,1.2.69.33.29.22.6C35,5,34.57,6.23,34.1,7.47a.39.39,0,0,0,.17.56,11.36,11.36,0,0,1,1.19,1,.46.46,0,0,0,.65.07c1.13-.7,2.28-1.36,3.41-2,.22-.13.37-.14.54.08.32.41.67.81,1,1.2a.37.37,0,0,1,0,.58c-.84,1-1.65,2.07-2.5,3.09a.49.49,0,0,0,0,.7A12.83,12.83,0,0,1,39.32,14a.43.43,0,0,0,.53.29c1.37-.18,2.74-.33,4.1-.51.24,0,.35,0,.42.25.15.46.32.92.5,1.37.09.22,0,.33-.17.45-1.16.69-2.31,1.41-3.47,2.1a.46.46,0,0,0-.25.62,9.53,9.53,0,0,1,.26,1.51c0,.35.18.45.49.5,1.24.19,2.47.43,3.72.61.41.06.56.22.53.64a13.9,13.9,0,0,0,0,1.58c0,.26-.08.35-.33.39-1.26.2-2.5.44-3.76.63-.42.06-.64.17-.66.65A8.24,8.24,0,0,1,41,26.53a.38.38,0,0,0,.21.49c1.17.71,2.33,1.43,3.5,2.13.23.14.29.26.18.51q-.24.63-.45,1.26a.37.37,0,0,1-.49.31c-1.36-.18-2.71-.32-4.07-.5a.42.42,0,0,0-.51.25c-.25.48-.52.95-.81,1.4a.39.39,0,0,0,0,.56c.85,1.05,1.69,2.12,2.54,3.16.17.21.2.34,0,.54-.36.4-.71.82-1.05,1.24-.17.23-.32.2-.54.07l-3.44-2.06a.37.37,0,0,0-.55,0c-.41.38-.84.72-1.28,1.06a.36.36,0,0,0-.15.5c.48,1.27.93,2.54,1.4,3.8.09.25.08.38-.17.51-.42.22-.83.46-1.23.71a.41.41,0,0,1-.64-.09c-.88-1-1.8-2-2.68-3a.43.43,0,0,0-.58-.14c-.48.2-1,.37-1.45.52a.43.43,0,0,0-.38.5c0,1.32,0,2.65,0,4,0,.28-.06.41-.36.45-.48.06-1,.15-1.44.25-.24.06-.32,0-.41-.24-.5-1.25-1-2.5-1.51-3.76-.11-.28-.23-.4-.55-.37a7.1,7.1,0,0,1-1.22,0,.38.38,0,0,0-.45.29c-.51,1.27-1,2.52-1.54,3.79-.11.26-.22.36-.51.28A13,13,0,0,0,19,44.73c-.29,0-.38-.15-.37-.45,0-1.32,0-2.65,0-4a.42.42,0,0,0-.37-.5,12.52,12.52,0,0,1-1.45-.52.43.43,0,0,0-.59.13c-.9,1-1.82,2-2.72,3a.43.43,0,0,1-.65.1c-.37-.24-.76-.46-1.16-.67s-.36-.29-.23-.63c.49-1.23.92-2.48,1.4-3.72a.36.36,0,0,0-.14-.5q-.69-.51-1.32-1.08a.38.38,0,0,0-.53-.05L7.36,38a.35.35,0,0,1-.54-.09c-.32-.4-.66-.79-1-1.16a.4.4,0,0,1,0-.64C6.66,35,7.49,34,8.34,33a.42.42,0,0,0,0-.6c-.3-.45-.57-.92-.82-1.39a.4.4,0,0,0-.48-.25l-4.19.52c-.23,0-.34,0-.42-.25-.15-.46-.32-.92-.5-1.37-.09-.22,0-.32.16-.44L5.67,27a.41.41,0,0,0,.23-.54,12.46,12.46,0,0,1-.28-1.6.43.43,0,0,0-.43-.45c-1.34-.22-2.67-.46-4-.67-.27,0-.36-.15-.35-.41,0-.58,0-1.17,0-1.75,0-.27.09-.36.36-.4,1.29-.21,2.58-.45,3.87-.65.35-.06.54-.15.57-.56a8.79,8.79,0,0,1,.26-1.52A.4.4,0,0,0,5.66,18c-1.16-.69-2.31-1.4-3.48-2.09a.39.39,0,0,1-.2-.57c.18-.41.32-.84.47-1.26a.34.34,0,0,1,.44-.27c1.38.18,2.77.33,4.15.51A.43.43,0,0,0,7.57,14a15.15,15.15,0,0,1,.83-1.4.37.37,0,0,0,0-.52C7.5,11,6.65,9.94,5.78,8.89c-.18-.21-.2-.34,0-.54.36-.4.72-.81,1.05-1.23.18-.22.32-.21.55-.08,1.14.69,2.31,1.35,3.45,2.05A.46.46,0,0,0,11.48,9a11.27,11.27,0,0,1,1.19-1,.41.41,0,0,0,.18-.59c-.48-1.25-.93-2.51-1.41-3.76-.09-.23-.07-.36.16-.49.46-.24.9-.49,1.34-.76a.34.34,0,0,1,.51.08c.92,1,1.85,2,2.76,3a.46.46,0,0,0,.62.15,10.94,10.94,0,0,1,1.49-.52c.26-.08.32-.2.32-.46,0-1.34,0-2.68,0-4,0-.26.05-.4.33-.43A10.19,10.19,0,0,0,20.32,0c.36-.1.49.05.61.36.49,1.23,1,2.45,1.5,3.68a.43.43,0,0,0,.51.32,7,7,0,0,1,1.21,0,.41.41,0,0,0,.48-.31c.5-1.27,1-2.52,1.53-3.79.1-.25.2-.33.47-.27.45.1.9.18,1.36.24.29,0,.4.15.39.46C28.35,1.38,28.37,2.05,28.37,2.71ZM20.77,36.8a.33.33,0,0,0,0-.1c0-2.4,0-4.79,0-7.19,0-.22-.12-.26-.28-.32a7.55,7.55,0,0,1-2.36-1.55,7.67,7.67,0,0,1,1.33-12,1.8,1.8,0,0,1,.55-.24.57.57,0,0,1,.75.36,1.66,1.66,0,0,1,.09.63c0,1.61-.09,3.22.08,4.82a1,1,0,0,0,1,1q1.5,0,3,0a1,1,0,0,0,1-1A10.36,10.36,0,0,0,26.07,20c0-1.26,0-2.52,0-3.77,0-.78.45-1,1.13-.7a5.84,5.84,0,0,1,1.2.89,7.64,7.64,0,0,1-2.16,12.86c-.23.09-.25.23-.25.43,0,2.17,0,4.35,0,6.53,0,.68,0,.68.66.52A14.57,14.57,0,1,0,9.24,25.35a14.17,14.17,0,0,0,7.87,10.22A12.85,12.85,0,0,0,20.77,36.8Z" transform="translate(-0.84)" fill="url(#a)"/><path d="M66.38,33.5H55.93V10.25H66.2a8,8,0,0,1,5.19,1.56,5.2,5.2,0,0,1,1.91,4.24,4.86,4.86,0,0,1-1.25,3.33,4.93,4.93,0,0,1-3.11,1.71v.13A5.93,5.93,0,0,1,72.87,23a5.32,5.32,0,0,1,1.55,3.87,6,6,0,0,1-2.16,4.86A9,9,0,0,1,66.38,33.5ZM60.8,13.87v6.05h3.64a4.79,4.79,0,0,0,3-.82,2.72,2.72,0,0,0,1.07-2.29,2.62,2.62,0,0,0-.94-2.17,4.05,4.05,0,0,0-2.64-.77Zm0,16h4.33A5.13,5.13,0,0,0,68.35,29a3.07,3.07,0,0,0,1.1-2.54A2.92,2.92,0,0,0,68.32,24a5.43,5.43,0,0,0-3.3-.86H60.8Zm27.43-1.79h4.34A6.07,6.07,0,0,1,90,32.24a9.18,9.18,0,0,1-5.44,1.57,8.4,8.4,0,0,1-6.38-2.44,9.24,9.24,0,0,1-2.32-6.67A9.56,9.56,0,0,1,78.14,18a9,9,0,0,1,12.31-.12,8.94,8.94,0,0,1,2.26,6.43v1.45H80.47V26a4.28,4.28,0,0,0,1.14,3.1,4,4,0,0,0,3,1.18,4.4,4.4,0,0,0,2.31-.58A2.93,2.93,0,0,0,88.23,28.09ZM84.4,19A3.66,3.66,0,0,0,81.71,20a4.24,4.24,0,0,0-1.2,2.77h7.66A4,4,0,0,0,87.07,20,3.58,3.58,0,0,0,84.4,19Zm11.74-7.16h4.7v3.95h3.29v3.56h-3.29v8.62c0,1.35.7,2,2.11,2a7.81,7.81,0,0,0,1.18-.08v3.48a11.67,11.67,0,0,1-2.27.19c-2.06,0-3.52-.37-4.4-1.12a4.68,4.68,0,0,1-1.32-3.73V19.32H93.73V15.76h2.41Zm15.49,21.9a6.27,6.27,0,0,1-4.29-1.48,4.86,4.86,0,0,1-1.69-3.84,4.44,4.44,0,0,1,1.79-3.75,9.54,9.54,0,0,1,5.2-1.57l4.43-.27V21.62a2.38,2.38,0,0,0-.82-1.95A3.46,3.46,0,0,0,114,19a3.5,3.5,0,0,0-2.1.61,2.43,2.43,0,0,0-1,1.58h-4.3a5.18,5.18,0,0,1,2.2-4.13,10.08,10.08,0,0,1,10.9,0,5.17,5.17,0,0,1,2.06,4.27V33.5h-4.55V30.76h-.09a5.1,5.1,0,0,1-2.2,2.16A6.77,6.77,0,0,1,111.63,33.71Zm1.53-3.43a4.25,4.25,0,0,0,2.79-.93A2.92,2.92,0,0,0,117.07,27v-1.3l-3.72.25a4.37,4.37,0,0,0-2.24.66,2,2,0,0,0,0,3.11A3.38,3.38,0,0,0,113.16,30.28Zm18.4-20h9.7a8,8,0,0,1,5.82,2.19,7.71,7.71,0,0,1,2.24,5.77A7.6,7.6,0,0,1,147,24a8.3,8.3,0,0,1-6,2.2h-4.6V33.5h-4.86Zm4.86,3.85v8.27H140a4.6,4.6,0,0,0,3.26-1.08,4,4,0,0,0,1.16-3.07,4,4,0,0,0-1.15-3A4.61,4.61,0,0,0,140,14.1Zm15.06,19.4V15.76H156v3.17h.09a4.69,4.69,0,0,1,1.55-2.5,4.11,4.11,0,0,1,2.67-.88,4.23,4.23,0,0,1,1.33.18V19.9a4.19,4.19,0,0,0-1.7-.29,3.64,3.64,0,0,0-2.78,1.05,4,4,0,0,0-1,2.91V33.5Zm19.39.31a8.46,8.46,0,0,1-6.39-2.45,9.33,9.33,0,0,1-2.35-6.74,9.3,9.3,0,0,1,2.36-6.7,9.5,9.5,0,0,1,12.77,0,9.27,9.27,0,0,1,2.36,6.71,9.36,9.36,0,0,1-2.34,6.75A8.49,8.49,0,0,1,170.87,33.81ZM168,28.72a3.65,3.65,0,0,0,5.84,0,6.92,6.92,0,0,0,1.05-4.1,6.85,6.85,0,0,0-1.06-4.08,3.61,3.61,0,0,0-5.83,0,6.92,6.92,0,0,0-1.06,4.08A6.92,6.92,0,0,0,168,28.72ZM183,33.5V19.32h-2.4V15.76H183V14.18a4.58,4.58,0,0,1,1.33-3.69,6.85,6.85,0,0,1,4.41-1.13,15.73,15.73,0,0,1,2.17.16v3.27a7.3,7.3,0,0,0-1.29-.11,2.28,2.28,0,0,0-1.53.42,1.78,1.78,0,0,0-.48,1.35v1.31H191v3.56h-3.22V33.5Zm12.64-19.67a2.52,2.52,0,0,1-1.79-.71,2.36,2.36,0,0,1-.74-1.76,2.33,2.33,0,0,1,.74-1.75,2.51,2.51,0,0,1,1.79-.7,2.54,2.54,0,0,1,1.81.7,2.33,2.33,0,0,1,.74,1.75,2.36,2.36,0,0,1-.74,1.76A2.55,2.55,0,0,1,195.67,13.83ZM193.32,33.5V15.76H198V33.5Zm7.74,0V9.14h4.71V33.5Zm19.39-5.41h4.34a6,6,0,0,1-2.6,4.15,9.18,9.18,0,0,1-5.44,1.57,8.4,8.4,0,0,1-6.38-2.44,9.24,9.24,0,0,1-2.32-6.67A9.56,9.56,0,0,1,210.36,18a9,9,0,0,1,12.31-.12,8.94,8.94,0,0,1,2.26,6.43v1.45H212.69V26a4.28,4.28,0,0,0,1.14,3.1,4,4,0,0,0,3,1.18,4.4,4.4,0,0,0,2.31-.58A2.93,2.93,0,0,0,220.45,28.09ZM216.62,19A3.62,3.62,0,0,0,213.94,20a4.2,4.2,0,0,0-1.21,2.77h7.66a4,4,0,0,0-1.1-2.79A3.56,3.56,0,0,0,216.62,19Zm10.17,2a4.76,4.76,0,0,1,2-4,8.84,8.84,0,0,1,5.4-1.52,8.53,8.53,0,0,1,5.3,1.54,5,5,0,0,1,2.06,4.09h-4.35a2.18,2.18,0,0,0-.9-1.67,3.54,3.54,0,0,0-2.17-.62,3.6,3.6,0,0,0-2,.52,1.59,1.59,0,0,0-.77,1.38c0,.87.79,1.49,2.37,1.85l3.33.73A8.2,8.2,0,0,1,240.87,25a4.09,4.09,0,0,1,1.15,3.1,4.91,4.91,0,0,1-2.16,4.15,9.43,9.43,0,0,1-5.65,1.57,9.26,9.26,0,0,1-5.57-1.54,5.38,5.38,0,0,1-2.28-4.14H231A2.5,2.5,0,0,0,232,29.87a4,4,0,0,0,2.33.6,4.11,4.11,0,0,0,2.21-.51,1.54,1.54,0,0,0,.81-1.37,1.32,1.32,0,0,0-.51-1.1,4.52,4.52,0,0,0-1.72-.69l-3.27-.74Q226.8,24.91,226.79,21Z" transform="translate(-0.84)" fill="url(#b)"/></svg>