<svg xmlns="http://www.w3.org/2000/svg" width="50" height="50" viewBox="0 0 50 50">
  <title>ios</title>
  <circle cx="25" cy="25" r="25" fill="#333"/>
  <rect width="50" height="50" rx="10.78" ry="10.78" fill="#333"/>
  <g style="isolation: isolate">
    <path d="M10.12,18.1a1.7,1.7,0,0,1-2.37,0,1.64,1.64,0,0,1,0-2.34,1.7,1.7,0,0,1,2.37,0,1.64,1.64,0,0,1,0,2.34ZM7.5,34.94V20.62h2.86V34.94Z" fill="#fff"/>
    <path d="M20.56,15.6a8.33,8.33,0,0,1,6.5,2.65,10.26,10.26,0,0,1,2.41,7.18,10.27,10.27,0,0,1-2.4,7.18,8.33,8.33,0,0,1-6.51,2.65,8.33,8.33,0,0,1-6.51-2.65,10.27,10.27,0,0,1-2.4-7.18,10.3,10.3,0,0,1,2.4-7.18A8.33,8.33,0,0,1,20.56,15.6Zm0,2.6a5.27,5.27,0,0,0-4.31,1.95,8.11,8.11,0,0,0-1.58,5.28,8.11,8.11,0,0,0,1.58,5.28,5.27,5.27,0,0,0,4.31,1.95,5.25,5.25,0,0,0,4.29-1.95,8.11,8.11,0,0,0,1.59-5.28,8.11,8.11,0,0,0-1.59-5.28A5.25,5.25,0,0,0,20.56,18.2Z" fill="#fff"/>
    <path d="M30.08,29.64H33a3,3,0,0,0,1.41,2.27,5.43,5.43,0,0,0,3.14.85,5,5,0,0,0,3-.83,2.49,2.49,0,0,0,1.16-2.1A2.26,2.26,0,0,0,40.84,28a6.57,6.57,0,0,0-2.67-1.15l-2.47-.59a8.05,8.05,0,0,1-3.87-1.89,4.39,4.39,0,0,1-1.24-3.24,4.88,4.88,0,0,1,1.93-4,7.72,7.72,0,0,1,5-1.54,7.5,7.5,0,0,1,4.9,1.54,5.08,5.08,0,0,1,2,4H41.5a3,3,0,0,0-1.22-2.23,4.51,4.51,0,0,0-2.81-.82,4.57,4.57,0,0,0-2.79.79,2.45,2.45,0,0,0-1.08,2.06,2,2,0,0,0,.81,1.64,7.13,7.13,0,0,0,2.65,1.1l2.1.52a9,9,0,0,1,4.22,1.93,4.39,4.39,0,0,1,1.3,3.34,5.08,5.08,0,0,1-2,4.22,8.39,8.39,0,0,1-5.37,1.57,8.14,8.14,0,0,1-5.14-1.53A5.26,5.26,0,0,1,30.08,29.64Z" fill="#fff"/>
  </g>
</svg>
