<?xml version="1.0" encoding="utf-8"?>
<!-- Generator: Adobe Illustrator 25.1.0, SVG Export Plug-In . SVG Version: 6.00 Build 0)  -->
<svg version="1.1" id="Layer_1" xmlns="http://www.w3.org/2000/svg" xmlns:xlink="http://www.w3.org/1999/xlink" x="0px" y="0px"
	 viewBox="0 0 100 100" style="enable-background:new 0 0 100 100;" xml:space="preserve">
<style type="text/css">
	.st0{display:none;fill:#F5F5F7;}
	.st1{fill:#FFFFFF;}
</style>
<path class="st0" d="M46.82,60.31c0,8.33-4.35,13.62-11.28,13.62s-11.31-5.29-11.31-13.62s4.35-13.56,11.31-13.56
	S46.82,51.92,46.82,60.31z M38.4,32.87c0,1.14,0.96,1.81,2.31,1.81c1.61,0.16,3.04-1.01,3.2-2.62c0.01-0.1,0.02-0.2,0.01-0.31v-1.08
	L41,30.89C39.16,31.12,38.4,31.73,38.4,32.87z M100,49.67c0.21,27.22-21.69,49.46-48.91,49.67c-0.25,0-0.51,0-0.76,0
	c-27.43,0-49.67-22.24-49.67-49.67S22.89,0,50.33,0C77.55-0.21,99.79,21.69,100,48.91C100,49.17,100,49.42,100,49.67z M57.63,30.21
	c-0.36,3.21,1.96,6.1,5.17,6.45c0.23,0.02,0.45,0.04,0.68,0.04c2.61,0.26,4.95-1.58,5.32-4.18h-2.4c-0.29,1.35-1.55,2.25-2.92,2.1
	c-2.05,0-3.3-1.67-3.3-4.41s1.26-4.3,3.3-4.3c1.35-0.05,2.56,0.83,2.92,2.13h2.4c-0.35-2.61-2.7-4.48-5.32-4.24
	c-3.13-0.12-5.76,2.31-5.89,5.44C57.57,29.58,57.59,29.9,57.63,30.21z M43.98,27.96v1.08l-3.42,0.18c-2.92,0.2-4.65,1.49-4.65,3.71
	c-0.01,2.07,1.65,3.75,3.71,3.77c0.16,0,0.31-0.01,0.46-0.03c1.51,0.08,2.94-0.67,3.74-1.96h0.2v1.75h2.34v-8.5
	c0-2.6-1.75-4.15-4.85-4.15s-4.85,1.37-5.08,3.45h2.37c0.26-0.91,1.23-1.4,2.6-1.4s2.51,0.76,2.51,2.1L43.98,27.96z M17.42,24.08
	l3.42,12.39h2.51l2.57-9.26h0.2l2.54,9.26h2.66l3.39-12.39h-2.45l-2.22,9.55h-0.18l-2.57-9.55h-2.34l-2.57,9.55h-0.26l-2.22-9.55
	H17.42z M51.17,60.28c0-10.78-6.02-17.53-15.63-17.53s-15.66,6.78-15.66,17.53s6.02,17.53,15.66,17.53S51.17,71.06,51.17,60.28z
	 M54.09,36.53c0.45,0.03,0.9,0.03,1.34,0v-1.96c-0.31,0.03-0.62,0.03-0.94,0c-1.23,0-1.75-0.58-1.75-1.9v-6.6h2.69v-1.96h-2.69
	v-3.16H50.3v3.16h-1.99v1.96h1.99v7.13c0.09,2.4,1.17,3.33,3.89,3.33H54.09z M79.4,67.62c0-4.79-2.92-7.63-9.88-9.17l-3.77-0.82
	c-4.65-1.02-6.46-2.92-6.46-5.55c0-3.45,3.27-5.52,7.51-5.52c3.75-0.5,7.2,2.1,7.74,5.84h4.24c-0.18-5.84-5.08-9.82-11.86-9.82
	s-11.98,3.94-11.98,9.55c0,4.82,2.92,7.89,9.76,9.38l3.74,0.82c4.73,1.05,6.6,2.92,6.6,5.84c0,3.33-3.33,5.84-7.95,5.84
	s-8.27-2.22-8.77-5.84h-4.15c0.41,5.84,5.35,9.7,12.77,9.7s12.54-3.97,12.54-10.26H79.4z M82.32,28.43
	c0.28-2.24-1.32-4.28-3.56-4.56c-0.22-0.03-0.45-0.04-0.68-0.03c-1.6-0.13-3.11,0.74-3.8,2.19h-0.18V19.2h-2.45v17.27h2.45v-7.25
	c-0.17-1.61,1-3.04,2.61-3.21c0.17-0.02,0.35-0.02,0.52-0.01c1.75,0,2.66,1.02,2.66,2.92v7.45h2.45L82.32,28.43z"/>
<path class="st1" d="M52.68,51.43c0,8.92-4.65,14.56-12.07,14.56s-12.07-5.64-12.07-14.56c0-8.95,4.65-14.56,12.07-14.56
	S52.68,42.48,52.68,51.43z M99.9,27.54v44.91c0,3.56-0.03,9.17-1.96,14.16c-0.97,2.46-3.21,5.93-6.39,8.39
	c-1.84,1.4-4.02,2.78-7.02,3.65c-3.21,0.94-7.17,1.25-12.07,1.25H27.55c-4.9,0-8.86-0.31-12.07-1.28c-2.99-0.9-5.18-2.25-7.02-3.65
	c-3.18-2.43-5.43-5.93-6.39-8.39C0.13,81.62,0.1,76.01,0.1,72.46V27.54c0-3.56,0.03-9.17,1.96-14.16C3.03,10.92,5.28,7.46,8.46,5
	c1.84-1.4,4.02-2.78,7.02-3.65c3.21-0.94,7.17-1.25,12.07-1.25h44.91c4.93,0,8.86,0.31,12.07,1.28c2.99,0.9,5.21,2.25,7.02,3.65
	c3.18,2.43,5.43,5.93,6.39,8.39C99.87,18.38,99.9,23.99,99.9,27.54z M19.78,69.55V47.91h-4.46v21.64H19.78z M20.09,41.89
	c0-1.4-1.12-2.56-2.56-2.56c-1.4,0-2.56,1.12-2.56,2.56c0,1.4,1.15,2.56,2.56,2.56C18.97,44.42,20.09,43.29,20.09,41.89z
	 M57.33,51.43c0-11.51-6.42-18.74-16.72-18.74S23.9,39.93,23.9,51.43s6.42,18.71,16.72,18.71S57.33,62.94,57.33,51.43z M86.27,59.26
	c0-5.11-2.99-8.14-10.54-9.79l-4.02-0.87c-4.96-1.09-6.89-3.06-6.89-5.89c0-3.71,3.49-5.89,8.02-5.89c4.74,0,7.86,2.43,8.26,6.39
	h4.52c-0.22-6.14-5.43-10.48-12.66-10.48c-7.52,0-12.79,4.21-12.79,10.17c0,5.15,3.15,8.45,10.42,10.01l4.02,0.87
	c5.02,1.09,7.05,3.12,7.05,6.14c0,3.59-3.59,6.14-8.48,6.14c-5.21,0-8.83-2.37-9.36-6.27h-4.52c0.44,6.27,5.71,10.32,13.63,10.32
	C81,70.15,86.27,65.97,86.27,59.26z"/>
</svg>
