<?xml version="1.0" encoding="utf-8"?>
<!-- Generator: Adobe Illustrator 25.2.0, SVG Export Plug-In . SVG Version: 6.00 Build 0)  -->
<svg version="1.1" id="Layer_1" xmlns="http://www.w3.org/2000/svg" xmlns:xlink="http://www.w3.org/1999/xlink" x="0px" y="0px"
	 viewBox="0 0 50 50" style="enable-background:new 0 0 50 50;" xml:space="preserve" width="50" height="50">
<style type="text/css">
	.st0{fill:#333333;}
	.st1{fill:#FFFFFF;}
</style>
<path class="st0" d="M10.8,0h28.4C45.2,0,50,4.8,50,10.8v28.4c0,6-4.8,10.8-10.8,10.8H10.8C4.8,50,0,45.2,0,39.2V10.8
	C0,4.8,4.8,0,10.8,0z"/>
<g>
	<path class="st1" d="M12.5,9c0-0.5,0.4-0.9,0.9-0.9c0.5,0,0.9,0.4,0.9,0.9c0,0.5-0.4,0.9-0.9,0.9C12.9,9.8,12.5,9.4,12.5,9z
		 M12.7,11H14v6.9h-1.4V11z"/>
	<path class="st1" d="M16.2,8.8h3.6c1.8,0,3,1.2,3,3v0c0,1.8-1.2,3-3,3h-2.1v3.1h-1.4V8.8z M17.6,10v3.6h1.8c1.2,0,1.9-0.7,1.9-1.8
		v0c0-1.1-0.7-1.8-1.9-1.8H17.6z"/>
	<path class="st1" d="M23.8,16L23.8,16c0-1.2,0.9-2,2.6-2.1l1.9-0.1v-0.6c0-0.8-0.5-1.2-1.4-1.2c-0.8,0-1.3,0.3-1.4,0.8l0,0h-1.3
		l0,0c0.2-1.1,1.3-1.9,2.8-1.9c1.7,0,2.7,0.9,2.7,2.3v4.7h-1.4v-1h-0.1c-0.4,0.7-1.1,1.1-2,1.1C24.8,18.1,23.8,17.3,23.8,16z
		 M26.5,17c1,0,1.8-0.7,1.8-1.6v-0.6l-1.7,0.1c-1,0.1-1.4,0.4-1.4,1v0C25.2,16.6,25.7,17,26.5,17z"/>
	<path class="st1" d="M31.2,14.5L31.2,14.5c0-2.2,1.1-3.6,2.9-3.6c0.9,0,1.8,0.5,2.1,1.2h0.1V8.3h1.4v9.6h-1.4v-1.1h-0.1
		c-0.4,0.8-1.2,1.2-2.1,1.2C32.3,18.1,31.2,16.7,31.2,14.5z M36.3,14.5L36.3,14.5c0-1.5-0.7-2.4-1.9-2.4c-1.2,0-1.8,0.9-1.8,2.4v0
		c0,1.5,0.7,2.4,1.8,2.4C35.6,16.9,36.3,16,36.3,14.5z"/>
</g>
<g>
	<path class="st1" d="M8.2,30.6L8.2,30.6c0-5.9,3.3-9.6,8.6-9.6c5.3,0,8.5,3.7,8.5,9.6v0c0,5.9-3.2,9.6-8.5,9.6
		C11.4,40.2,8.2,36.5,8.2,30.6z M22.4,30.6L22.4,30.6c0-4.4-2.2-7.1-5.6-7.1s-5.6,2.7-5.6,7.1v0c0,4.3,2.1,7.1,5.6,7.1
		C20.2,37.7,22.4,34.9,22.4,30.6z"/>
	<path class="st1" d="M27,35l0-0.2h2.8l0,0.1c0.2,1.7,1.9,2.7,4.4,2.7c2.3,0,4-1.2,4-2.9v0c0-1.4-1-2.3-3.4-2.8l-2-0.4
		c-3.7-0.8-5.3-2.5-5.3-5.2v0c0-3.2,2.8-5.3,6.6-5.3s6.4,2.2,6.6,5l0,0.2h-2.8l0-0.2c-0.2-1.5-1.7-2.6-3.9-2.6c-2.1,0-3.7,1-3.7,2.7
		v0c0,1.4,1,2.2,3.3,2.8l2,0.4c3.8,0.8,5.4,2.4,5.4,5.1v0c0,3.5-2.7,5.7-7,5.7C29.9,40.2,27.2,38.1,27,35z"/>
</g>
</svg>
