<?xml version="1.0" encoding="utf-8"?>
<!-- Generator: Adobe Illustrator 25.1.0, SVG Export Plug-In . SVG Version: 6.00 Build 0)  -->
<svg version="1.1" id="Layer_1" xmlns="http://www.w3.org/2000/svg" xmlns:xlink="http://www.w3.org/1999/xlink" x="0px" y="0px"
	 viewBox="0 0 100 100" style="enable-background:new 0 0 100 100;" xml:space="preserve">
<style type="text/css">
	.st0{fill-rule:evenodd;clip-rule:evenodd;fill:#FFFFFF;}
</style>
<path class="st0" d="M42.61,24.14c0-2.28-1.33-3.52-3.73-3.52h-3.44v6.98h3.44C41.24,27.6,42.61,26.35,42.61,24.14z"/>
<path class="st0" d="M34.21,46.76c-7.41,0-12.06,5.63-12.06,14.57c0,8.92,4.65,14.55,12.06,14.55c7.41,0,12.06-5.63,12.06-14.55
	C46.27,52.39,41.62,46.76,34.21,46.76z"/>
<path class="st0" d="M67.82,33.88c2.2,0,3.57-1.74,3.57-4.59c0-2.83-1.38-4.61-3.57-4.61c-2.2,0-3.55,1.74-3.55,4.61
	C64.28,32.16,65.6,33.88,67.82,33.88z"/>
<path class="st0" d="M97.93,13.4c-0.97-2.46-3.21-5.93-6.38-8.38c-1.83-1.41-4.02-2.76-7.03-3.65c-3.2-0.95-7.15-1.27-12.06-1.27
	H27.55c-4.91,0-8.86,0.32-12.06,1.27c-3.01,0.89-5.19,2.24-7.03,3.65c-3.17,2.45-5.41,5.91-6.38,8.38C0.12,18.36,0.1,24,0.1,27.54
	v44.91c0,3.55,0.02,9.18,1.97,14.15c0.97,2.46,3.21,5.93,6.38,8.38c1.83,1.41,4.02,2.76,7.03,3.65c3.2,0.95,7.15,1.27,12.06,1.27
	h44.91c4.91,0,8.86-0.32,12.06-1.27c3.01-0.89,5.19-2.24,7.03-3.65c3.17-2.45,5.41-5.91,6.38-8.38c1.96-4.97,1.97-10.6,1.97-14.15
	V27.54C99.9,24,99.88,18.36,97.93,13.4z M67.08,22.44c1.82,0,3.35,0.88,4.07,2.33h0.19v-7.29h2.62V35.9h-2.51v-2.1h-0.21
	c-0.79,1.45-2.34,2.31-4.17,2.31c-3.37,0-5.51-2.66-5.51-6.85C61.57,25.11,63.73,22.44,67.08,22.44z M32.72,18.32h6.88
	c3.44,0,5.8,2.36,5.8,5.82c0,3.39-2.44,5.75-5.89,5.75h-4.07v6.01h-2.73V18.32z M27.26,17c0.91,0,1.66,0.74,1.66,1.66
	c0,0.9-0.74,1.64-1.66,1.64s-1.66-0.74-1.66-1.64C25.61,17.75,26.35,17,27.26,17z M28.57,22.67V35.9h-2.61V22.67H28.57z
	 M34.21,80.06c-10.28,0-16.71-7.21-16.71-18.72s6.43-18.75,16.71-18.75c10.28,0,16.71,7.24,16.71,18.75
	C50.92,72.84,44.49,80.06,34.21,80.06z M47.37,32.17c0-2.38,1.78-3.75,4.93-3.95l3.59-0.22v-1.16c0-1.45-0.93-2.27-2.72-2.27
	c-1.46,0-2.47,0.55-2.77,1.51h-2.53c0.27-2.23,2.41-3.68,5.42-3.68c3.32,0,5.2,1.66,5.2,4.43v9.05h-2.52v-1.88h-0.21
	c-0.79,1.34-2.24,2.1-3.98,2.1C49.23,36.12,47.37,34.58,47.37,32.17z M67.74,80.06c-7.92,0-13.19-4.07-13.62-10.33h4.52
	c0.53,3.9,4.15,6.26,9.35,6.26c4.92,0,8.49-2.59,8.49-6.16c0-3.04-2.01-5.05-7.04-6.16l-4.02-0.88c-7.26-1.58-10.4-4.87-10.4-10.03
	c0-5.98,5.28-10.18,12.79-10.18c7.24,0,12.46,4.32,12.67,10.48h-4.52c-0.4-3.97-3.54-6.41-8.27-6.41c-4.52,0-8.01,2.21-8.01,5.9
	c0,2.87,1.93,4.82,6.88,5.91l4.02,0.88c7.56,1.66,10.55,4.67,10.55,9.8C81.13,75.86,75.85,80.06,67.74,80.06z"/>
<path class="st0" d="M55.89,29.87l-3.24,0.22C50.83,30.21,50,30.85,50,32.06c0,1.23,1.04,1.95,2.46,1.95c1.97,0,3.44-1.29,3.44-3
	V29.87z"/>
</svg>
