<?xml version="1.0" encoding="utf-8"?>
<!-- Generator: Adobe Illustrator 25.1.0, SVG Export Plug-In . SVG Version: 6.00 Build 0)  -->
<svg version="1.1" id="Layer_1" xmlns="http://www.w3.org/2000/svg" xmlns:xlink="http://www.w3.org/1999/xlink" x="0px" y="0px"
	 viewBox="0 0 100 100" style="enable-background:new 0 0 100 100;" xml:space="preserve">
<style type="text/css">
	.st0{display:none;fill:#FFFFFF;}
	.st1{fill:#FFFFFF;}
</style>
<path class="st0" d="M46.48,60.68c0,8.37-4.37,13.68-11.33,13.68s-11.36-5.31-11.36-13.68s4.37-13.62,11.36-13.62
	S46.48,52.26,46.48,60.68z M38.02,33.12c0,1.14,0.97,1.82,2.32,1.82c1.61,0.16,3.05-1.01,3.21-2.63c0.01-0.1,0.02-0.21,0.01-0.31
	v-1.09l-2.94,0.21C38.79,31.36,38.02,31.98,38.02,33.12z M99.9,50c0.21,27.35-21.79,49.69-49.13,49.9c-0.26,0-0.51,0-0.77,0
	C22.44,99.9,0.1,77.56,0.1,50S22.44,0.1,50,0.1c27.35-0.21,49.69,21.79,49.9,49.13C99.9,49.49,99.9,49.74,99.9,50z M57.34,30.45
	c-0.36,3.22,1.97,6.12,5.19,6.48c0.23,0.03,0.45,0.04,0.68,0.04c2.62,0.26,4.98-1.59,5.34-4.2h-2.41c-0.29,1.35-1.56,2.26-2.94,2.11
	c-2.05,0-3.32-1.67-3.32-4.43s1.26-4.31,3.32-4.31c1.36-0.05,2.57,0.84,2.94,2.14h2.41c-0.35-2.62-2.71-4.5-5.34-4.26
	c-3.14-0.12-5.79,2.32-5.91,5.47C57.28,29.81,57.3,30.13,57.34,30.45z M43.63,28.19v1.09l-3.43,0.18c-2.94,0.21-4.67,1.5-4.67,3.73
	c-0.01,2.07,1.66,3.77,3.73,3.78c0.16,0,0.31-0.01,0.47-0.03c1.52,0.08,2.96-0.68,3.76-1.97h0.21v1.76h2.35v-8.54
	c0-2.61-1.76-4.17-4.87-4.17s-4.87,1.38-5.11,3.46h2.38c0.26-0.91,1.23-1.41,2.61-1.41c1.38,0,2.52,0.76,2.52,2.11L43.63,28.19z
	 M16.95,24.29l3.43,12.45h2.52l2.58-9.3h0.21l2.55,9.3h2.67l3.4-12.45h-2.47l-2.23,9.6h-0.18l-2.58-9.6h-2.35l-2.58,9.6h-0.26
	l-2.23-9.6H16.95z M50.85,60.65c0-10.83-6.05-17.61-15.7-17.61s-15.73,6.81-15.73,17.61s6.05,17.61,15.73,17.61
	S50.85,71.49,50.85,60.65z M53.79,36.79c0.45,0.03,0.9,0.03,1.35,0v-1.97c-0.31,0.03-0.63,0.03-0.94,0c-1.23,0-1.76-0.59-1.76-1.91
	v-6.63h2.7v-1.97h-2.7v-3.17h-2.47v3.17h-2v1.97h2v7.16c0.09,2.41,1.17,3.35,3.9,3.35H53.79z M79.2,68.02
	c0-4.81-2.94-7.66-9.92-9.22l-3.79-0.82c-4.67-1.03-6.49-2.94-6.49-5.58c0-3.46,3.29-5.55,7.54-5.55c3.76-0.51,7.23,2.11,7.78,5.87
	h4.26c-0.18-5.87-5.11-9.86-11.92-9.86s-12.03,3.96-12.03,9.6c0,4.84,2.94,7.93,9.8,9.42l3.76,0.82c4.76,1.06,6.63,2.94,6.63,5.87
	c0,3.35-3.35,5.87-7.98,5.87s-8.31-2.23-8.81-5.87h-4.17c0.41,5.87,5.37,9.75,12.83,9.75s12.59-3.99,12.59-10.3H79.2z M82.14,28.66
	c0.28-2.25-1.32-4.3-3.58-4.58c-0.23-0.03-0.45-0.04-0.68-0.03c-1.61-0.13-3.13,0.75-3.82,2.2h-0.18v-6.87h-2.47v17.35h2.47v-7.28
	c-0.17-1.61,1.01-3.05,2.62-3.22c0.17-0.02,0.35-0.02,0.52-0.01c1.76,0,2.67,1.03,2.67,2.94v7.48h2.47L82.14,28.66z"/>
<path class="st0" d="M52.68,51.43c0,8.92-4.65,14.56-12.07,14.56s-12.07-5.64-12.07-14.56c0-8.95,4.65-14.56,12.07-14.56
	S52.68,42.48,52.68,51.43z M99.9,27.54v44.91c0,3.56-0.03,9.17-1.96,14.16c-0.97,2.46-3.21,5.93-6.39,8.39
	c-1.84,1.4-4.02,2.78-7.02,3.65c-3.21,0.94-7.17,1.25-12.07,1.25H27.55c-4.9,0-8.86-0.31-12.07-1.28c-2.99-0.9-5.18-2.25-7.02-3.65
	c-3.18-2.43-5.43-5.93-6.39-8.39C0.13,81.62,0.1,76.01,0.1,72.46V27.54c0-3.56,0.03-9.17,1.96-14.16C3.03,10.92,5.28,7.46,8.46,5
	c1.84-1.4,4.02-2.78,7.02-3.65c3.21-0.94,7.17-1.25,12.07-1.25h44.91c4.93,0,8.86,0.31,12.07,1.28c2.99,0.9,5.21,2.25,7.02,3.65
	c3.18,2.43,5.43,5.93,6.39,8.39C99.87,18.38,99.9,23.99,99.9,27.54z M19.78,69.55V47.91h-4.46v21.64H19.78z M20.09,41.89
	c0-1.4-1.12-2.56-2.56-2.56c-1.4,0-2.56,1.12-2.56,2.56c0,1.4,1.15,2.56,2.56,2.56C18.97,44.42,20.09,43.29,20.09,41.89z
	 M57.33,51.43c0-11.51-6.42-18.74-16.72-18.74S23.9,39.93,23.9,51.43s6.42,18.71,16.72,18.71S57.33,62.94,57.33,51.43z M86.27,59.26
	c0-5.11-2.99-8.14-10.54-9.79l-4.02-0.87c-4.96-1.09-6.89-3.06-6.89-5.89c0-3.71,3.49-5.89,8.02-5.89c4.74,0,7.86,2.43,8.26,6.39
	h4.52c-0.22-6.14-5.43-10.48-12.66-10.48c-7.52,0-12.79,4.21-12.79,10.17c0,5.15,3.15,8.45,10.42,10.01l4.02,0.87
	c5.02,1.09,7.05,3.12,7.05,6.14c0,3.59-3.59,6.14-8.48,6.14c-5.21,0-8.83-2.37-9.36-6.27h-4.52c0.44,6.27,5.71,10.32,13.63,10.32
	C81,70.15,86.27,65.97,86.27,59.26z"/>
<g id="Dark">
	<g id="Mac_2_">
		<path id="macOS_Finder_1_" class="st1" d="M55.03,33.21v-0.82l-2.56,0.18c-0.72,0.05-1.27,0.2-1.63,0.46
			c-0.37,0.26-0.55,0.63-0.55,1.09c0,0.45,0.18,0.81,0.54,1.08c0.36,0.27,0.85,0.4,1.45,0.4c0.39,0,0.75-0.06,1.08-0.18
			c0.33-0.12,0.63-0.28,0.87-0.5c0.25-0.21,0.44-0.46,0.57-0.75C54.96,33.88,55.03,33.56,55.03,33.21z M50,0.1
			C22.15,0.1,0.1,22.15,0.1,50c0,27.85,22.05,49.9,49.9,49.9S99.9,77.85,99.9,50C99.9,22.15,77.85,0.1,50,0.1z M59.69,29.68
			c0.24-0.66,0.57-1.23,1-1.7c0.43-0.47,0.95-0.83,1.55-1.09c0.61-0.25,1.28-0.38,2.02-0.38c0.67,0,1.28,0.1,1.82,0.3
			c0.54,0.2,1,0.47,1.39,0.81c0.39,0.34,0.69,0.73,0.92,1.19c0.23,0.45,0.36,0.93,0.41,1.43h-2c-0.05-0.28-0.14-0.54-0.27-0.77
			c-0.13-0.24-0.3-0.44-0.51-0.62c-0.21-0.18-0.46-0.31-0.75-0.41c-0.29-0.1-0.61-0.15-0.97-0.15c-0.43,0-0.81,0.09-1.16,0.26
			c-0.35,0.17-0.64,0.41-0.89,0.73c-0.25,0.31-0.44,0.69-0.57,1.14c-0.14,0.45-0.2,0.95-0.2,1.5c0,0.57,0.07,1.08,0.2,1.52
			c0.13,0.45,0.33,0.83,0.58,1.14c0.25,0.31,0.55,0.55,0.9,0.71c0.35,0.16,0.73,0.25,1.15,0.25c0.69,0,1.24-0.16,1.68-0.48
			c0.43-0.32,0.71-0.79,0.84-1.41h2.01c-0.06,0.55-0.21,1.05-0.45,1.5c-0.25,0.45-0.56,0.84-0.95,1.16
			c-0.39,0.32-0.85,0.57-1.38,0.74c-0.53,0.17-1.11,0.26-1.74,0.26c-0.75,0-1.43-0.13-2.03-0.37c-0.61-0.25-1.13-0.61-1.56-1.07
			c-0.43-0.46-0.77-1.03-1-1.7s-0.35-1.41-0.35-2.25C59.33,31.08,59.45,30.34,59.69,29.68z M31.18,26.64h2.01v1.78h0.04
			c0.12-0.3,0.28-0.56,0.48-0.79c0.2-0.23,0.42-0.43,0.68-0.6c0.26-0.17,0.54-0.29,0.85-0.38c0.31-0.09,0.64-0.13,0.98-0.13
			c0.74,0,1.36,0.18,1.86,0.53c0.51,0.35,0.87,0.86,1.08,1.52h0.05c0.13-0.32,0.31-0.6,0.53-0.85c0.22-0.25,0.47-0.47,0.76-0.64
			s0.6-0.31,0.94-0.41c0.34-0.09,0.69-0.14,1.07-0.14c0.52,0,0.99,0.08,1.41,0.25c0.42,0.17,0.78,0.4,1.08,0.7
			c0.3,0.3,0.53,0.67,0.69,1.09s0.24,0.9,0.24,1.43v7.17h-2.09V30.5c0-0.69-0.18-1.23-0.53-1.6c-0.35-0.38-0.86-0.57-1.52-0.57
			c-0.32,0-0.62,0.06-0.89,0.17c-0.27,0.11-0.5,0.27-0.69,0.48c-0.19,0.2-0.35,0.45-0.45,0.73c-0.11,0.28-0.17,0.59-0.17,0.93v6.53
			h-2.06v-6.84c0-0.3-0.05-0.58-0.14-0.82c-0.09-0.25-0.23-0.45-0.4-0.63c-0.17-0.18-0.39-0.31-0.63-0.4
			c-0.25-0.09-0.53-0.14-0.84-0.14c-0.32,0-0.62,0.06-0.9,0.18c-0.27,0.12-0.51,0.29-0.71,0.5c-0.2,0.21-0.35,0.46-0.46,0.76
			c-0.11,0.29-0.28,0.61-0.28,0.95v6.45h-1.98V26.64z M35.73,77c-9.2,0-14.97-6.39-14.97-16.59s5.77-16.61,14.97-16.61
			S50.68,50.2,50.68,60.4C50.68,70.6,44.93,77,35.73,77z M52.77,37.14c-0.34,0.09-0.69,0.13-1.04,0.13c-0.52,0-1-0.07-1.44-0.22
			c-0.44-0.15-0.81-0.36-1.12-0.63c-0.31-0.27-0.56-0.6-0.73-0.98c-0.18-0.38-0.26-0.81-0.26-1.28c0-0.92,0.34-1.64,1.03-2.16
			c0.69-0.52,1.68-0.82,2.99-0.91l2.84-0.16V30.1c0-0.61-0.19-1.07-0.58-1.39c-0.38-0.32-0.93-0.47-1.63-0.47
			c-0.28,0-0.55,0.04-0.8,0.11c-0.25,0.07-0.46,0.17-0.65,0.31c-0.19,0.13-0.34,0.29-0.46,0.48c-0.12,0.18-0.21,0.39-0.25,0.62
			h-1.97c0.01-0.46,0.13-0.89,0.34-1.29c0.22-0.39,0.51-0.74,0.88-1.03c0.37-0.29,0.81-0.52,1.31-0.68
			c0.51-0.16,1.05-0.24,1.65-0.24c0.64,0,1.22,0.08,1.74,0.24c0.52,0.16,0.96,0.39,1.33,0.69c0.37,0.3,0.65,0.66,0.85,1.08
			c0.2,0.42,0.3,0.9,0.3,1.42v7.22h-2v-1.75h-0.05c-0.15,0.28-0.34,0.54-0.57,0.77c-0.23,0.23-0.49,0.43-0.77,0.59
			C53.42,36.92,53.1,37.05,52.77,37.14z M66,77c-7.01,0-11.78-3.67-12.12-9.44h4.57c0.36,3.3,3.54,5.48,7.91,5.48
			c4.19,0,7.2-2.18,7.2-5.17c0-2.58-1.83-4.14-6.06-5.21l-4.12-1.02c-5.93-1.47-8.62-4.17-8.62-8.6c0-5.46,4.77-9.24,11.56-9.24
			c6.64,0,11.27,3.81,11.45,9.29h-4.52c-0.31-3.3-3.01-5.32-7.02-5.32c-3.99,0-6.75,2.05-6.75,5.01c0,2.34,1.74,3.72,5.97,4.79
			l3.47,0.87c6.62,1.6,9.33,4.21,9.33,8.89C78.25,73.28,73.53,77,66,77z M35.73,47.88c-6.3,0-10.24,4.83-10.24,12.52
			c0,7.66,3.94,12.5,10.24,12.5c6.28,0,10.24-4.83,10.24-12.5C45.98,52.72,42.02,47.88,35.73,47.88z"/>
	</g>
</g>
</svg>
