<svg xmlns="http://www.w3.org/2000/svg" width="44" height="44" viewBox="0 0 44 44">
  <title>macos</title>
  <circle cx="22" cy="22" r="22" fill="#333"/>
  <g style="isolation: isolate">
    <path d="M14.91,16.82V12.57h.81v.68h.06a1.09,1.09,0,0,1,.45-.56,1.28,1.28,0,0,1,.73-.21,1.23,1.23,0,0,1,.73.21,1.2,1.2,0,0,1,.45.56h.06a1.31,1.31,0,0,1,.51-.56,1.48,1.48,0,0,1,.79-.21,1.37,1.37,0,0,1,1,.37,1.44,1.44,0,0,1,.35,1v2.93H20V14.11c0-.57-.27-.86-.82-.86a.87.87,0,0,0-.65.26.85.85,0,0,0-.25.63v2.68h-.82V14a.78.78,0,0,0-.22-.57.91.91,0,0,0-1.24.07.94.94,0,0,0-.26.69v2.6Z" fill="#fff"/>
    <path d="M23.21,16.89a1.49,1.49,0,0,1-1-.35,1.15,1.15,0,0,1-.4-.92,1.1,1.1,0,0,1,.41-.9,2.06,2.06,0,0,1,1.17-.37l1.16-.07v-.37a.64.64,0,0,0-.23-.52,1,1,0,0,0-.64-.18,1.29,1.29,0,0,0-.59.12.64.64,0,0,0-.3.35H22a1.2,1.2,0,0,1,.53-.87,2.07,2.07,0,0,1,1.2-.33,1.84,1.84,0,0,1,1.24.38,1.31,1.31,0,0,1,.43,1.05v2.91h-.81v-.6h-.06a1.34,1.34,0,0,1-.53.5A1.66,1.66,0,0,1,23.21,16.89Zm.21-.71a1.21,1.21,0,0,0,.79-.26.85.85,0,0,0,.32-.67V14.9l-1,.06a1.29,1.29,0,0,0-.65.18.51.51,0,0,0-.2.44.52.52,0,0,0,.21.44A.94.94,0,0,0,23.42,16.18Z" fill="#fff"/>
    <path d="M30.16,14h-.82a.89.89,0,0,0-.34-.53,1.06,1.06,0,0,0-.66-.2,1,1,0,0,0-.83.39,1.67,1.67,0,0,0-.3,1.06,1.73,1.73,0,0,0,.3,1.08,1,1,0,0,0,.83.39A1.12,1.12,0,0,0,29,16a.83.83,0,0,0,.34-.52h.82a1.61,1.61,0,0,1-.56,1.06,1.94,1.94,0,0,1-1.26.39,1.88,1.88,0,0,1-1.46-.59,2.32,2.32,0,0,1-.53-1.63,2.28,2.28,0,0,1,.53-1.61,1.87,1.87,0,0,1,1.46-.59,1.84,1.84,0,0,1,1.25.41A1.64,1.64,0,0,1,30.16,14Z" fill="#fff"/>
  </g>
  <g style="isolation: isolate">
    <path d="M16.47,20.07a6.11,6.11,0,0,1,4.81,2A7.89,7.89,0,0,1,23,27.45a7.89,7.89,0,0,1-1.76,5.4,6.08,6.08,0,0,1-4.81,2,6.12,6.12,0,0,1-4.82-2,7.85,7.85,0,0,1-1.76-5.4,7.84,7.84,0,0,1,1.77-5.4A6.15,6.15,0,0,1,16.47,20.07Zm0,2a3.9,3.9,0,0,0-3.17,1.44,6,6,0,0,0-1.17,3.9,6.1,6.1,0,0,0,1.16,3.9,3.85,3.85,0,0,0,3.18,1.45,3.84,3.84,0,0,0,3.17-1.45,6.1,6.1,0,0,0,1.16-3.9,6.06,6.06,0,0,0-1.16-3.9A3.86,3.86,0,0,0,16.47,22.11Z" fill="#fff"/>
    <path d="M24.15,30.71h2.17a2.2,2.2,0,0,0,1.05,1.6,4.24,4.24,0,0,0,2.33.59,3.67,3.67,0,0,0,2.18-.61,1.82,1.82,0,0,0,.86-1.55,1.6,1.6,0,0,0-.64-1.31,5,5,0,0,0-2-.85l-1.82-.44a5.57,5.57,0,0,1-2.81-1.39,3.5,3.5,0,0,1-.9-2.5,3.73,3.73,0,0,1,1.41-3,5.74,5.74,0,0,1,3.72-1.14,5.48,5.48,0,0,1,3.56,1.13,3.84,3.84,0,0,1,1.52,2.91H32.61a2.26,2.26,0,0,0-.95-1.54,3.41,3.41,0,0,0-2-.57,3.43,3.43,0,0,0-2.09.58,1.78,1.78,0,0,0-.79,1.52,1.47,1.47,0,0,0,.6,1.22,5.23,5.23,0,0,0,2,.79l1.55.38A6.62,6.62,0,0,1,34,27.93a3.37,3.37,0,0,1,1,2.53,3.92,3.92,0,0,1-1.46,3.2,6.14,6.14,0,0,1-4,1.18,6,6,0,0,1-3.8-1.12A3.92,3.92,0,0,1,24.15,30.71Z" fill="#fff"/>
  </g>
</svg>
