<svg xmlns="http://www.w3.org/2000/svg" width="50" height="29.79" viewBox="0 0 50 29.79">
  <title>tvos</title>
  <rect width="50" height="29.79" rx="2.85" ry="2.85" fill="#333"/>
  <g style="isolation: isolate">
    <g style="isolation: isolate">
      <path d="M9,10.33h1.45v2h1.74v1.2H10.48v5.37a1.27,1.27,0,0,0,.27.9,1.07,1.07,0,0,0,.84.29,3.57,3.57,0,0,0,.62,0v1.22a4.24,4.24,0,0,1-.93.08,2.29,2.29,0,0,1-1.73-.56A2.65,2.65,0,0,1,9,19V13.54H7.79v-1.2H9Z" fill="#fff"/>
      <path d="M21.12,12.34l-3.31,9H16.35l-3.3-8.95h1.51l2.51,7.39h0l2.52-7.39Z" fill="#fff"/>
    </g>
    <g style="isolation: isolate">
      <path d="M27.61,9.11a5.28,5.28,0,0,1,4.1,1.67,6.47,6.47,0,0,1,1.51,4.53,6.47,6.47,0,0,1-1.51,4.52,5.28,5.28,0,0,1-4.1,1.66,5.3,5.3,0,0,1-4.1-1.66A6.51,6.51,0,0,1,22,15.31a6.52,6.52,0,0,1,1.51-4.53A5.28,5.28,0,0,1,27.61,9.11Zm0,1.64A3.31,3.31,0,0,0,24.9,12a5.16,5.16,0,0,0-1,3.33,5.15,5.15,0,0,0,1,3.32,3.62,3.62,0,0,0,5.42,0,5.15,5.15,0,0,0,1-3.32,5.16,5.16,0,0,0-1-3.33A3.31,3.31,0,0,0,27.61,10.75Z" fill="#fff"/>
      <path d="M33.61,18h1.84a1.93,1.93,0,0,0,.88,1.43,3.44,3.44,0,0,0,2,.54,3.12,3.12,0,0,0,1.86-.52,1.58,1.58,0,0,0,.74-1.33,1.41,1.41,0,0,0-.53-1.14,4.08,4.08,0,0,0-1.68-.73l-1.55-.37a5.06,5.06,0,0,1-2.44-1.19,2.77,2.77,0,0,1-.78-2,3.08,3.08,0,0,1,1.21-2.52,4.93,4.93,0,0,1,3.15-1,4.75,4.75,0,0,1,3.08,1,3.19,3.19,0,0,1,1.24,2.52H40.8A1.86,1.86,0,0,0,40,11.2a2.8,2.8,0,0,0-1.77-.52,2.93,2.93,0,0,0-1.76.5,1.52,1.52,0,0,0-.67,1.29,1.28,1.28,0,0,0,.5,1A4.51,4.51,0,0,0,38,14.2l1.32.32A5.74,5.74,0,0,1,42,15.74a2.76,2.76,0,0,1,.82,2.1,3.23,3.23,0,0,1-1.24,2.67,5.35,5.35,0,0,1-3.38,1,5.12,5.12,0,0,1-3.24-1A3.34,3.34,0,0,1,33.61,18Z" fill="#fff"/>
    </g>
  </g>
</svg>
