<svg xmlns="http://www.w3.org/2000/svg" width="44" height="44" viewBox="0 0 44 44">
  <title>watchos</title>
  <circle cx="22" cy="22" r="22" fill="#333"/>
  <g style="isolation: isolate">
    <g style="isolation: isolate">
      <path d="M16.45,12.57l-1.17,4.25h-.87l-.88-3.13h-.07l-.87,3.13h-.86l-1.18-4.25h.86l.76,3.24h.06l.87-3.24h.81l.87,3.24h.07l.76-3.24Z" fill="#fff"/>
    </g>
    <g style="isolation: isolate">
      <path d="M18.38,16.89a1.53,1.53,0,0,1-1-.35,1.17,1.17,0,0,1-.39-.92,1.08,1.08,0,0,1,.41-.9,2,2,0,0,1,1.17-.37l1.15-.07v-.37a.63.63,0,0,0-.22-.52,1,1,0,0,0-.65-.18,1.25,1.25,0,0,0-.58.12.62.62,0,0,0-.31.35h-.81a1.18,1.18,0,0,1,.54-.87,2,2,0,0,1,1.2-.33,1.83,1.83,0,0,1,1.23.38,1.32,1.32,0,0,1,.44,1.05v2.91h-.81v-.6h-.07a1.32,1.32,0,0,1-.52.5A1.72,1.72,0,0,1,18.38,16.89Zm.21-.71a1.23,1.23,0,0,0,.79-.26.84.84,0,0,0,.31-.67V14.9l-1,.06a1.25,1.25,0,0,0-.64.18.52.52,0,0,0-.21.44A.51.51,0,0,0,18,16,.94.94,0,0,0,18.59,16.18Z" fill="#fff"/>
    </g>
    <g style="isolation: isolate">
      <path d="M22,11.53h.84v1.06h.95v.7h-.95v2.19A.7.7,0,0,0,23,16a.62.62,0,0,0,.46.15l.31,0v.7a2.42,2.42,0,0,1-.45,0,1.54,1.54,0,0,1-1-.26,1.14,1.14,0,0,1-.3-.89v-2.4h-.7v-.7H22Z" fill="#fff"/>
    </g>
    <g style="isolation: isolate">
      <path d="M28.32,14H27.5a.93.93,0,0,0-.33-.53,1.11,1.11,0,0,0-.67-.2,1,1,0,0,0-.83.39,1.67,1.67,0,0,0-.3,1.06,1.73,1.73,0,0,0,.3,1.08,1,1,0,0,0,.83.39,1.12,1.12,0,0,0,.66-.18.79.79,0,0,0,.34-.52h.82a1.57,1.57,0,0,1-.56,1.06,1.94,1.94,0,0,1-1.26.39A1.88,1.88,0,0,1,25,16.31a2.37,2.37,0,0,1-.53-1.63A2.33,2.33,0,0,1,25,13.07a1.87,1.87,0,0,1,1.46-.59,1.89,1.89,0,0,1,1.26.41A1.63,1.63,0,0,1,28.32,14Z" fill="#fff"/>
      <path d="M29.32,16.82V10.91h.83v2.34h.07a1.14,1.14,0,0,1,.5-.56,1.74,1.74,0,0,1,.84-.2,1.49,1.49,0,0,1,1.11.41,1.65,1.65,0,0,1,.39,1.17v2.75h-.84V14.28c0-.68-.32-1-.95-1a1.13,1.13,0,0,0-.81.29,1.06,1.06,0,0,0-.3.79v2.48Z" fill="#fff"/>
    </g>
  </g>
  <g style="isolation: isolate">
    <path d="M16.47,20.07a6.11,6.11,0,0,1,4.81,2A7.89,7.89,0,0,1,23,27.45a7.89,7.89,0,0,1-1.76,5.4,6.08,6.08,0,0,1-4.81,2,6.12,6.12,0,0,1-4.82-2,7.85,7.85,0,0,1-1.76-5.4,7.84,7.84,0,0,1,1.77-5.4A6.15,6.15,0,0,1,16.47,20.07Zm0,2a3.9,3.9,0,0,0-3.17,1.44,6,6,0,0,0-1.17,3.9,6.1,6.1,0,0,0,1.16,3.9,3.85,3.85,0,0,0,3.18,1.45,3.84,3.84,0,0,0,3.17-1.45,6.1,6.1,0,0,0,1.16-3.9,6.06,6.06,0,0,0-1.16-3.9A3.86,3.86,0,0,0,16.47,22.11Z" fill="#fff"/>
    <path d="M24.15,30.71h2.17a2.2,2.2,0,0,0,1.05,1.6,4.24,4.24,0,0,0,2.33.59,3.67,3.67,0,0,0,2.18-.61,1.82,1.82,0,0,0,.86-1.55,1.6,1.6,0,0,0-.64-1.31,5,5,0,0,0-2-.85l-1.82-.44a5.57,5.57,0,0,1-2.81-1.39,3.5,3.5,0,0,1-.9-2.5,3.73,3.73,0,0,1,1.41-3,5.74,5.74,0,0,1,3.72-1.14,5.48,5.48,0,0,1,3.56,1.13,3.84,3.84,0,0,1,1.52,2.91H32.61a2.26,2.26,0,0,0-.95-1.54,3.41,3.41,0,0,0-2-.57,3.43,3.43,0,0,0-2.09.58,1.78,1.78,0,0,0-.79,1.52,1.47,1.47,0,0,0,.6,1.22,5.23,5.23,0,0,0,2,.79l1.55.38A6.62,6.62,0,0,1,34,27.93a3.37,3.37,0,0,1,1,2.53,3.92,3.92,0,0,1-1.46,3.2,6.14,6.14,0,0,1-4,1.18,6,6,0,0,1-3.8-1.12A3.92,3.92,0,0,1,24.15,30.71Z" fill="#fff"/>
  </g>
</svg>
