<?xml version="1.0" encoding="utf-8"?>
<!-- Generator: Adobe Illustrator 25.1.0, SVG Export Plug-In . SVG Version: 6.00 Build 0)  -->
<svg version="1.1" id="Layer_1" xmlns="http://www.w3.org/2000/svg" xmlns:xlink="http://www.w3.org/1999/xlink" x="0px" y="0px"
	 viewBox="0 0 100 100" style="enable-background:new 0 0 100 100;" xml:space="preserve">
<style type="text/css">
	.st0{fill:#FFFFFF;}
	.st1{display:none;fill:#FFFFFF;}
</style>
<path class="st0" d="M46.48,60.68c0,8.37-4.37,13.68-11.33,13.68s-11.36-5.31-11.36-13.68s4.37-13.62,11.36-13.62
	S46.48,52.26,46.48,60.68z M38.02,33.12c0,1.14,0.97,1.82,2.32,1.82c1.61,0.16,3.05-1.01,3.21-2.63c0.01-0.1,0.02-0.21,0.01-0.31
	v-1.09l-2.94,0.21C38.79,31.36,38.02,31.98,38.02,33.12z M99.9,50c0.21,27.35-21.79,49.69-49.13,49.9c-0.26,0-0.51,0-0.77,0
	C22.44,99.9,0.1,77.56,0.1,50S22.44,0.1,50,0.1c27.35-0.21,49.69,21.79,49.9,49.13C99.9,49.49,99.9,49.74,99.9,50z M57.34,30.45
	c-0.36,3.22,1.97,6.12,5.19,6.48c0.23,0.03,0.45,0.04,0.68,0.04c2.62,0.26,4.98-1.59,5.34-4.2h-2.41c-0.29,1.35-1.56,2.26-2.94,2.11
	c-2.05,0-3.32-1.67-3.32-4.43s1.26-4.31,3.32-4.31c1.36-0.05,2.57,0.84,2.94,2.14h2.41c-0.35-2.62-2.71-4.5-5.34-4.26
	c-3.14-0.12-5.79,2.32-5.91,5.47C57.28,29.81,57.3,30.13,57.34,30.45z M43.63,28.19v1.09l-3.43,0.18c-2.94,0.21-4.67,1.5-4.67,3.73
	c-0.01,2.07,1.66,3.77,3.73,3.78c0.16,0,0.31-0.01,0.47-0.03c1.52,0.08,2.96-0.68,3.76-1.97h0.21v1.76h2.35v-8.54
	c0-2.61-1.76-4.17-4.87-4.17s-4.87,1.38-5.11,3.46h2.38c0.26-0.91,1.23-1.41,2.61-1.41c1.38,0,2.52,0.76,2.52,2.11L43.63,28.19z
	 M16.95,24.29l3.43,12.45h2.52l2.58-9.3h0.21l2.55,9.3h2.67l3.4-12.45h-2.47l-2.23,9.6h-0.18l-2.58-9.6h-2.35l-2.58,9.6h-0.26
	l-2.23-9.6H16.95z M50.85,60.65c0-10.83-6.05-17.61-15.7-17.61s-15.73,6.81-15.73,17.61s6.05,17.61,15.73,17.61
	S50.85,71.49,50.85,60.65z M53.79,36.79c0.45,0.03,0.9,0.03,1.35,0v-1.97c-0.31,0.03-0.63,0.03-0.94,0c-1.23,0-1.76-0.59-1.76-1.91
	v-6.63h2.7v-1.97h-2.7v-3.17h-2.47v3.17h-2v1.97h2v7.16c0.09,2.41,1.17,3.35,3.9,3.35H53.79z M79.2,68.02
	c0-4.81-2.94-7.66-9.92-9.22l-3.79-0.82c-4.67-1.03-6.49-2.94-6.49-5.58c0-3.46,3.29-5.55,7.54-5.55c3.76-0.51,7.23,2.11,7.78,5.87
	h4.26c-0.18-5.87-5.11-9.86-11.92-9.86s-12.03,3.96-12.03,9.6c0,4.84,2.94,7.93,9.8,9.42l3.76,0.82c4.76,1.06,6.63,2.94,6.63,5.87
	c0,3.35-3.35,5.87-7.98,5.87s-8.31-2.23-8.81-5.87h-4.17c0.41,5.87,5.37,9.75,12.83,9.75s12.59-3.99,12.59-10.3H79.2z M82.14,28.66
	c0.28-2.25-1.32-4.3-3.58-4.58c-0.23-0.03-0.45-0.04-0.68-0.03c-1.61-0.13-3.13,0.75-3.82,2.2h-0.18v-6.87h-2.47v17.35h2.47v-7.28
	c-0.17-1.61,1.01-3.05,2.62-3.22c0.17-0.02,0.35-0.02,0.52-0.01c1.76,0,2.67,1.03,2.67,2.94v7.48h2.47L82.14,28.66z"/>
<path class="st1" d="M52.68,51.43c0,8.92-4.65,14.56-12.07,14.56s-12.07-5.64-12.07-14.56c0-8.95,4.65-14.56,12.07-14.56
	S52.68,42.48,52.68,51.43z M99.9,27.54v44.91c0,3.56-0.03,9.17-1.96,14.16c-0.97,2.46-3.21,5.93-6.39,8.39
	c-1.84,1.4-4.02,2.78-7.02,3.65c-3.21,0.94-7.17,1.25-12.07,1.25H27.55c-4.9,0-8.86-0.31-12.07-1.28c-2.99-0.9-5.18-2.25-7.02-3.65
	c-3.18-2.43-5.43-5.93-6.39-8.39C0.13,81.62,0.1,76.01,0.1,72.46V27.54c0-3.56,0.03-9.17,1.96-14.16C3.03,10.92,5.28,7.46,8.46,5
	c1.84-1.4,4.02-2.78,7.02-3.65c3.21-0.94,7.17-1.25,12.07-1.25h44.91c4.93,0,8.86,0.31,12.07,1.28c2.99,0.9,5.21,2.25,7.02,3.65
	c3.18,2.43,5.43,5.93,6.39,8.39C99.87,18.38,99.9,23.99,99.9,27.54z M19.78,69.55V47.91h-4.46v21.64H19.78z M20.09,41.89
	c0-1.4-1.12-2.56-2.56-2.56c-1.4,0-2.56,1.12-2.56,2.56c0,1.4,1.15,2.56,2.56,2.56C18.97,44.42,20.09,43.29,20.09,41.89z
	 M57.33,51.43c0-11.51-6.42-18.74-16.72-18.74S23.9,39.93,23.9,51.43s6.42,18.71,16.72,18.71S57.33,62.94,57.33,51.43z M86.27,59.26
	c0-5.11-2.99-8.14-10.54-9.79l-4.02-0.87c-4.96-1.09-6.89-3.06-6.89-5.89c0-3.71,3.49-5.89,8.02-5.89c4.74,0,7.86,2.43,8.26,6.39
	h4.52c-0.22-6.14-5.43-10.48-12.66-10.48c-7.52,0-12.79,4.21-12.79,10.17c0,5.15,3.15,8.45,10.42,10.01l4.02,0.87
	c5.02,1.09,7.05,3.12,7.05,6.14c0,3.59-3.59,6.14-8.48,6.14c-5.21,0-8.83-2.37-9.36-6.27h-4.52c0.44,6.27,5.71,10.32,13.63,10.32
	C81,70.15,86.27,65.97,86.27,59.26z"/>
</svg>
